<svg xmlns="http://www.w3.org/2000/svg" xmlns:xlink="http://www.w3.org/1999/xlink" fill="none" version="1.1" width="1280" height="720" viewBox="0 0 1280 720"><defs><filter id="master_svg1_948_108" filterUnits="userSpaceOnUse" color-interpolation-filters="sRGB" x="412" y="99" width="455" height="330"><feFlood flood-opacity="0" result="BackgroundImageFix"/><feColorMatrix in="SourceAlpha" type="matrix" values="0 0 0 0 0 0 0 0 0 0 0 0 0 0 0 0 0 0 127 0"/><feOffset dy="4" dx="0"/><feGaussianBlur stdDeviation="5"/><feColorMatrix type="matrix" values="0 0 0 0 0 0 0 0 0 0 0 0 0 0 0 0 0 0 0.3019607961177826 0"/><feBlend mode="normal" in2="BackgroundImageFix" result="effect1_dropShadow"/><feBlend mode="normal" in="SourceGraphic" in2="effect1_dropShadow" result="shape"/></filter><filter id="master_svg2_948_559" filterUnits="userSpaceOnUse" color-interpolation-filters="sRGB" x="432" y="478" width="455" height="136"><feFlood flood-opacity="0" result="BackgroundImageFix"/><feColorMatrix in="SourceAlpha" type="matrix" values="0 0 0 0 0 0 0 0 0 0 0 0 0 0 0 0 0 0 127 0"/><feOffset dy="4" dx="0"/><feGaussianBlur stdDeviation="5"/><feColorMatrix type="matrix" values="0 0 0 0 0 0 0 0 0 0 0 0 0 0 0 0 0 0 0.3019607961177826 0"/><feBlend mode="normal" in2="BackgroundImageFix" result="effect1_dropShadow"/><feBlend mode="normal" in="SourceGraphic" in2="effect1_dropShadow" result="shape"/></filter><filter id="master_svg4_948_836" filterUnits="userSpaceOnUse" color-interpolation-filters="sRGB" x="1054.9998779296875" y="80" width="141" height="138"><feFlood flood-opacity="0" result="BackgroundImageFix"/><feBlend mode="normal" in="SourceGraphic" in2="BackgroundImageFix" result="shape"/><feColorMatrix in="SourceAlpha" type="matrix" result="hardAlpha" values="0 0 0 0 0 0 0 0 0 0 0 0 0 0 0 0 0 0 127 0"/><feOffset dy="4" dx="0"/><feGaussianBlur stdDeviation="5"/><feComposite in2="hardAlpha" operator="arithmetic" k2="-1" k3="1"/><feColorMatrix type="matrix" values="0 0 0 0 0 0 0 0 0 0 0 0 0 0 0 0 0 0 0.3019607961177826 0"/><feBlend mode="normal" in2="shape" result="effect1_innerShadow"/></filter></defs><clipPath id="master_svg0_5_0"><rect x="0" y="0" width="1280" height="720" rx="36"/></clipPath><clipPath id="master_svg3_948_836"><rect x="1054.4998779296875" y="79.5" width="132" height="125" rx="0"/></clipPath><g clip-path="url(#master_svg0_5_0)" style="mix-blend-mode:passthrough"><rect x="0" y="0" width="1280" height="720" rx="36" fill="#3662EC" fill-opacity="1"/><g><g filter="url(#master_svg1_948_108)" style="mix-blend-mode:passthrough"><path d="M704.206,309.025C687.948,309.025,674.287,297.851,674.287,284.075C674.287,270.298,687.948,258.756,704.206,258.756C720.4639999999999,258.756,733.65,270.298,733.65,284.075C733.65,297.851,720.4639999999999,309.025,704.206,309.025C704.206,309.025,704.206,309.025,704.206,309.025ZM711.1120000000001,357.452C695.9680000000001,370.272,672.614,376.503,639.717,376.503C639.649,376.503,639.569,376.492,639.487,376.492C639.418,376.492,639.337,376.503,639.255,376.503C606.358,376.503,583.018,370.272,567.888,357.452C563.239,353.512,563.239,347.14099999999996,567.888,343.21299999999997C572.524,339.286,580.0409999999999,339.286,584.69,343.21299999999997C595.13,352.06100000000004,612.9780000000001,356.368,639.255,356.368C639.337,356.368,639.418,356.379,639.487,356.379C639.569,356.379,639.649,356.368,639.717,356.368C665.9929999999999,356.368,683.857,352.06100000000004,694.31,343.21299999999997C698.9590000000001,339.273,706.477,339.286,711.1120000000001,343.21299999999997C715.748,347.153,715.748,353.522,711.1120000000001,357.452C711.1120000000001,357.452,711.1120000000001,357.452,711.1120000000001,357.452ZM545.35,284.075C545.35,270.30899999999997,558.984,258.756,575.229,258.756C591.487,258.756,604.673,270.30899999999997,604.673,284.075C604.673,297.851,591.487,309.025,575.229,309.025C558.984,309.025,545.35,297.851,545.35,284.075C545.35,284.075,545.35,284.075,545.35,284.075ZM784.4639999999999,125.1353C795.475,125.1353,804.434,132.7262,804.434,142.0452C804.434,151.3755,795.475,158.9667,784.4639999999999,158.9667C773.453,158.9667,764.494,151.3755,764.494,142.0452C764.494,132.7262,773.453,125.1353,784.4639999999999,125.1353C784.4639999999999,125.1353,784.4639999999999,125.1353,784.4639999999999,125.1353ZM857,256.671C857,232.239,833.55,212.369,804.7180000000001,212.369C792.239,212.369,780.781,216.101,771.7819999999999,222.31C739.903,205.33100000000002,699.448,195.1018,656.0840000000001,192.93630000000002C656.0840000000001,192.93630000000002,678.704,132.3347,678.704,132.3347C678.704,132.3347,740.869,144.7406,740.869,144.7406C742.501,163.9198,761.421,179.1019,784.4639999999999,179.1019C808.565,179.1019,828.181,162.4799,828.181,142.0452C828.181,121.6219,808.565,105,784.4639999999999,105C767.607,105,752.953,113.13243,745.654,125.0085C745.654,125.0085,673.417,110.59824,673.417,110.59824C667.367,109.38875,661.25,112.33762,659.374,117.3599C659.374,117.3599,631.289,192.57920000000001,631.289,192.57920000000001C584.568,193.5467,540.646,203.8102,506.4308,221.78C497.5541,215.894,486.3936,212.369,474.2816,212.369C445.4492,212.369,422,232.239,422,256.671C422,271.772,430.97188,285.122,444.6336,293.11699999999996C444.0627,296.631,443.7636,300.16700000000003,443.7636,303.749C443.7636,334.28700000000003,464.7116,362.692,502.7469,383.726C539.205,403.896,587.463,415,638.617,415C689.77,415,738.028,403.896,774.486,383.726C812.521,362.692,833.4680000000001,334.28700000000003,833.4680000000001,303.749C833.4680000000001,300.48900000000003,833.211,297.253,832.7339999999999,294.038C847.309,286.172,857,272.36,857,256.671C857,256.671,857,256.671,857,256.671Z" fill-rule="evenodd" fill="#FFFFFF" fill-opacity="1"/><path d="M851.1659999999999,278.841Q858,268.53999999999996,858,256.671Q858,247.436,853.78,238.994Q849.7149999999999,230.863,842.317,224.595Q834.938,218.34199999999998,825.389,214.914Q815.512,211.369,804.7180000000001,211.369Q795.373,211.369,786.6510000000001,214.055Q778.524,216.558,771.717,221.143Q747.932,208.567,718.486,201.0986Q689.4159999999999,193.726,657.498,192.00830000000002L679.344,133.482L739.9449999999999,145.5759Q740.6890000000001,152.4686,744.262,158.69830000000002Q747.908,165.0564,754.0160000000001,169.8972Q760.1279999999999,174.7406,767.837,177.37630000000001Q775.809,180.1019,784.4639999999999,180.1019Q793.515,180.1019,801.8,177.1266Q809.813,174.2489,816.0070000000001,168.9994Q822.219,163.7343,825.634,156.9033Q829.181,149.808,829.181,142.0452Q829.181,134.2865,825.634,127.1935Q822.219,120.3647,816.0070000000001,115.1009Q809.813,109.8524,801.8,106.97512Q793.515,104,784.4639999999999,104Q771.773,104,761.009,109.66582Q755.877,112.36746,751.7529999999999,116.1335Q747.88,119.67060000000001,745.174,123.8929L673.613,109.61757Q671.221,109.13941,668.808,109.44623Q666.467,109.74398,664.396,110.74122Q662.312,111.74523,660.79,113.31947Q659.202,114.96159,658.437,117.01L630.59,191.5941Q595.804,192.3801,563.943,199.82999999999998Q532.062,207.284,506.4876,220.622Q499.777,216.275,491.8556,213.909Q483.3516,211.369,474.2816,211.369Q463.4874,211.369,453.6111,214.914Q444.0613,218.34199999999998,436.6822,224.595Q429.28494,230.863,425.21999,238.994Q421.000004,247.436,421.000004,256.671Q421,268.091,427.34935,278.095Q433.3045,287.478,443.5403,293.631Q442.7636,298.724,442.7636,303.749Q442.7636,315.326,446.6875,326.502Q450.5745,337.573,458.1872,347.895Q473.5449,368.719,502.2629,384.601Q529.725,399.794,564.947,407.901Q600.133,416,638.617,416Q677.1,416,712.2860000000001,407.901Q747.5070000000001,399.795,774.97,384.601Q803.688,368.719,819.0450000000001,347.895Q826.658,337.573,830.5450000000001,326.502Q834.4680000000001,315.326,834.4680000000001,303.749Q834.4680000000001,299.248,833.822,294.582Q839.0350000000001,291.68399999999997,843.341,287.832Q847.914,283.741,851.1659999999999,278.841ZM832.7339999999999,294.038C847.309,286.172,857,272.36,857,256.671C857,232.239,833.55,212.369,804.7180000000001,212.369C792.239,212.369,780.781,216.101,771.7819999999999,222.31C740.1600000000001,205.46699999999998,700.1,195.267,657.1320000000001,192.99020000000002C656.783,192.9717,656.434,192.9537,656.0840000000001,192.93630000000002L656.451,191.95350000000002L678.704,132.3347L740.869,144.7406C742.501,163.9198,761.421,179.1019,784.4639999999999,179.1019C808.565,179.1019,828.181,162.4799,828.181,142.0452C828.181,121.6219,808.565,105,784.4639999999999,105C767.607,105,752.953,113.13243,745.654,125.0085L673.417,110.59824C667.367,109.38875,661.25,112.33762,659.374,117.3599L631.289,192.57920000000001C584.568,193.5467,540.646,203.8102,506.4308,221.78C497.5541,215.894,486.3936,212.369,474.2816,212.369C445.4492,212.369,422,232.239,422,256.671C422,271.772,430.97188,285.122,444.6336,293.11699999999996C444.0627,296.631,443.7636,300.16700000000003,443.7636,303.749C443.7636,334.28700000000003,464.7116,362.692,502.7469,383.726C539.205,403.896,587.463,415,638.617,415C689.77,415,738.028,403.896,774.486,383.726C812.521,362.692,833.4680000000001,334.28700000000003,833.4680000000001,303.749C833.4680000000001,300.48900000000003,833.211,297.253,832.7339999999999,294.038ZM804.434,142.0452C804.434,132.7262,795.475,125.1353,784.4639999999999,125.1353C773.453,125.1353,764.494,132.7262,764.494,142.0452C764.494,151.3755,773.453,158.9667,784.4639999999999,158.9667C795.475,158.9667,804.434,151.3755,804.434,142.0452ZM777.0360000000001,127.4082Q780.582,126.1353,784.4639999999999,126.1353Q788.345,126.1353,791.8910000000001,127.4082Q795.303,128.6329,797.932,130.8587Q800.5409999999999,133.06889999999999,801.9680000000001,135.91910000000001Q803.434,138.84879999999998,803.434,142.0452Q803.434,145.2457,801.9680000000001,148.1782Q800.5409999999999,151.0304,797.931,153.2419Q795.304,155.4686,791.8910000000001,156.6936Q788.345,157.9667,784.4639999999999,157.9667Q780.582,157.9667,777.0360000000001,156.6936Q773.624,155.4686,770.996,153.2419Q768.386,151.03050000000002,766.96,148.1782Q765.494,145.2457,765.494,142.0452Q765.494,138.84879999999998,766.96,135.91910000000001Q768.386,133.06889999999999,770.996,130.8587Q773.624,128.6329,777.0360000000001,127.4082ZM575.229,258.756C558.984,258.756,545.35,270.30899999999997,545.35,284.075C545.35,297.851,558.984,309.025,575.229,309.025C591.487,309.025,604.673,297.851,604.673,284.075C604.673,270.30899999999997,591.487,258.756,575.229,258.756ZM674.287,284.075C674.287,297.851,687.948,309.025,704.206,309.025C720.4639999999999,309.025,733.65,297.851,733.65,284.075C733.65,270.298,720.4639999999999,258.756,704.206,258.756C687.948,258.756,674.287,270.298,674.287,284.075ZM548.624,293.328Q546.35,288.898,546.35,284.075Q546.35,279.248,548.626,274.764Q550.832,270.41499999999996,554.844,267.01599999999996Q558.873,263.602,564.049,261.716Q569.428,259.756,575.229,259.756Q581.028,259.756,586.342,261.71500000000003Q591.446,263.595,595.393,267.01Q599.312,270.399,601.462,274.754Q603.673,279.233,603.673,284.075Q603.673,288.914,601.4639999999999,293.33799999999997Q599.3199999999999,297.632,595.4010000000001,300.953Q591.4639999999999,304.289,586.351,306.122Q581.044,308.025,575.229,308.025Q569.412,308.025,564.0409999999999,306.121Q558.855,304.283,554.836,300.947Q550.8240000000001,297.616,548.624,293.328ZM715.328,306.122Q710.021,308.025,704.206,308.025Q698.384,308.025,693.006,306.121Q687.813,304.283,683.788,300.946Q679.77,297.615,677.565,293.328Q675.287,288.898,675.287,284.075Q675.287,279.245,677.567,274.76Q679.778,270.411,683.796,267.01300000000003Q687.831,263.6,693.014,261.714Q698.399,259.756,704.206,259.756Q710.006,259.756,715.3199999999999,261.71299999999997Q720.424,263.59299999999996,724.371,267.006Q728.29,270.394,730.4390000000001,274.749Q732.65,279.22900000000004,732.65,284.075Q732.65,288.914,730.441,293.33799999999997Q728.298,297.632,724.379,300.953Q720.441,304.289,715.328,306.122ZM639.717,376.503C672.614,376.503,695.9680000000001,370.272,711.1120000000001,357.452C715.748,353.522,715.748,347.153,711.1120000000001,343.21299999999997C706.477,339.286,698.9590000000001,339.273,694.31,343.21299999999997C683.857,352.06100000000004,665.9929999999999,356.368,639.717,356.368C639.649,356.368,639.569,356.379,639.487,356.379C639.418,356.379,639.337,356.368,639.255,356.368C612.9780000000001,356.368,595.13,352.06100000000004,584.69,343.21299999999997C580.0409999999999,339.286,572.524,339.286,567.888,343.21299999999997C563.239,347.14099999999996,563.239,353.512,567.888,357.452C583.018,370.272,606.358,376.503,639.255,376.503C639.337,376.503,639.418,376.492,639.487,376.492C639.569,376.492,639.649,376.503,639.717,376.503ZM712.818,353.692Q712.01,355.379,710.466,356.688L710.4649999999999,356.68899999999996Q699.28,366.158,681.8140000000001,370.818Q664.261,375.503,639.72,375.503Q639.71,375.502,639.682,375.5Q639.565,375.492,639.487,375.492Q639.42,375.492,639.312,375.499Q639.263,375.503,639.255,375.503Q614.715,375.502,597.167,370.819Q579.711,366.159,568.535,356.68899999999996Q566.985,355.375,566.175,353.685Q565.4010000000001,352.071,565.4010000000001,350.328Q565.4010000000001,348.58500000000004,566.175,346.974Q566.984,345.286,568.533,343.977Q570.0989999999999,342.651,572.14,341.95Q574.126,341.26800000000003,576.284,341.26800000000003Q578.442,341.26800000000003,580.431,341.95Q582.475,342.651,584.045,343.977Q592.056,350.76599999999996,605.799,354.081Q619.432,357.368,639.255,357.368Q639.263,357.368,639.312,357.372Q639.42,357.379,639.487,357.379Q639.565,357.379,639.682,357.371Q639.711,357.369,639.72,357.368L639.717,357.368Q659.5409999999999,357.368,673.182,354.081Q686.935,350.76599999999996,694.956,343.977Q696.525,342.647,698.5699999999999,341.945Q700.557,341.262,702.716,341.26300000000003Q704.873,341.264,706.86,341.948Q708.9010000000001,342.65,710.4649999999999,343.976Q712.01,345.289,712.818,346.97900000000004Q713.5889999999999,348.59299999999996,713.5889999999999,350.337Q713.5889999999999,352.079,712.818,353.692Z" fill-rule="evenodd" fill="#000000" fill-opacity="1"/></g><g filter="url(#master_svg2_948_559)" style="mix-blend-mode:passthrough"><path d="M555.078,503L566.016,585L541.25,585L538.375,562.9375L503.8125,562.9375L494.1562,585L470.6875,585L502.5156,507.0625L498.3438,503L555.078,503ZM523.25,516.9375L509.4219,549L537.0781,549L532.9062,516.9375L523.25,516.9375ZM617.234,495L606.141,571.1562L615.797,585L586.844,585Q582.672,585,580.578,582.2656Q578.5,579.5156,578.5,575.3438L589.578,499.1875L585.406,495L617.234,495ZM664.266,520L637.906,520L639.344,503L667,503L664.266,520ZM664.266,524L655.906,585L628.266,585L636.609,528.0469L632.438,524L664.266,524ZM751.797,559.9375L707.578,559.9375L706.1410000000001,571.0625L744.875,571.0625L751.797,565.5781L747.6089999999999,585L686.844,585Q682.672,585,680.578,582.2344Q678.5,579.4688,678.5,575.2656L685.406,524L757.2660000000001,524L751.797,559.9375ZM711.6089999999999,537.9375L710.312,546L726.875,546L728.312,537.9375L711.6089999999999,537.9375ZM848.469,524L840.1089999999999,585L812.469,585L819.375,537.9375L802.812,537.9375L795.906,585L768.2660000000001,585L776.6089999999999,528.0469L772.438,524L848.469,524Z" fill="#F0ECEC" fill-opacity="1"/><path d="M606.141,571.1562L617.0889999999999,496L617.234,495L585.406,495L586.403,496L589.578,499.1875L578.5,575.3438Q578.5,579.5156,580.578,582.2656Q582.672,585,586.844,585L615.797,585L615.0989999999999,584L606.141,571.1562ZM613.88,584L605.094,571.4037L616.078,496L587.814,496L590.64,498.8362L579.5,575.4149Q579.517,579.2033,581.3720000000001,581.6577Q583.1659999999999,584,586.844,584L613.88,584ZM538.375,562.9375L541.25,585L566.016,585L565.8820000000001,584L555.078,503L498.3438,503L499.3707,504L502.5156,507.0625L471.09590000000003,584L470.6875,585L494.1562,585L503.8125,562.9375L538.375,562.9375ZM493.5023,584L503.1586,561.9375L539.2531,561.9375L542.128,584L564.873,584L554.203,504L500.8041,504L503.6963,506.8164L472.1761,584L493.5023,584ZM664.266,520L637.906,520L637.991,519L639.344,503L667,503L666.8389999999999,504L664.266,520ZM665.826,504L640.263,504L638.994,519L663.414,519L665.826,504ZM533.7846,515.9375L522.5922,515.9375L522.3318,516.5415L507.90160000000003,550L538.2167,550L533.7846,515.9375ZM509.8532,548L523.25,516.9375L532.9062,516.9375L536.948,548L537.0781,549L509.4219,549L509.8532,548ZM636.609,528.0469L628.412,584L628.266,585L655.906,585L664.129,525L664.266,524L632.438,524L633.468,525L636.609,528.0469ZM634.905,525L637.673,527.6854L629.423,584L655.034,584L663.119,525L634.905,525ZM707.578,559.9375L751.797,559.9375L757.113,525L757.2660000000001,524L685.406,524L678.5,575.2656Q678.5,579.4688,680.578,582.2344Q682.672,585,686.844,585L747.6089999999999,585L751.4649999999999,567.1168L751.797,565.5781L750.563,566.5556L744.875,571.0625L706.1410000000001,571.0625L706.27,570.0625L707.578,559.9375ZM750.231,568.0944L745.223,572.0625L705.0029999999999,572.0625L706.6990000000001,558.9375L750.938,558.9375L756.102,525L686.281,525L679.5,575.3316Q679.516,579.1562,681.375,581.6308Q683.169,584,686.844,584L746.802,584L750.231,568.0944ZM819.2280000000001,538.9375L812.616,584L812.469,585L840.1089999999999,585L848.332,525L848.469,524L772.438,524L773.4680000000001,525L776.6089999999999,528.0469L768.412,584L768.2660000000001,585L795.906,585L802.812,537.9375L819.375,537.9375L819.2280000000001,538.9375ZM795.0419999999999,584L801.9490000000001,536.9375L820.5319999999999,536.9375L813.626,584L839.2370000000001,584L847.322,525L774.905,525L777.673,527.6854L769.423,584L795.0419999999999,584ZM729.5070000000001,536.9375L710.7570000000001,536.9375L710.6220000000001,537.7787L709.139,547L727.712,547L729.5070000000001,536.9375ZM711.6089999999999,537.9375L710.473,545L710.312,546L726.875,546L728.134,538.9375L728.312,537.9375L711.6089999999999,537.9375Z" fill-rule="evenodd" fill="#000000" fill-opacity="1"/></g><g filter="url(#master_svg4_948_836)"><g><path d="M1158.60776328125,122.1550048828125C1170.58386328125,125.79070488281249,1178.13986328125,131.1103048828125,1178.13986328125,137.0400048828125L1178.13986328125,146.96000488281248C1178.13986328125,157.9166048828125,1152.33286328125,166.80000488281252,1120.49986328125,166.80000488281252C1088.66686328125,166.80000488281252,1062.85986328125,157.9166048828125,1062.85986328125,146.96000488281248L1062.85986328125,137.0400048828125C1062.85986328125,131.1128048828125,1070.41594328125,125.79070488281249,1082.39196328125,122.1550048828125C1087.50356328125,106.3426048828125,1102.63146328125,94.8800048828125,1120.49986328125,94.8800048828125C1138.36826328125,94.8800048828125,1153.4961632812501,106.3426048828125,1158.60776328125,122.1550048828125ZM1120.49986328125,159.36000488281252C1123.39386328125,159.36000488281252,1125.73986328125,157.1393048828125,1125.73986328125,154.4000048828125C1125.73986328125,151.6607048828125,1123.39386328125,149.4400048828125,1120.49986328125,149.4400048828125C1117.60586328125,149.4400048828125,1115.25986328125,151.6607048828125,1115.25986328125,154.4000048828125C1115.25986328125,157.1393048828125,1117.60586328125,159.36000488281252,1120.49986328125,159.36000488281252ZM1154.55986328125,154.4000048828125C1157.45386328125,154.4000048828125,1159.79986328125,152.17930488281252,1159.79986328125,149.4400048828125C1159.79986328125,146.7007048828125,1157.45386328125,144.4800048828125,1154.55986328125,144.4800048828125C1151.66586328125,144.4800048828125,1149.31986328125,146.7007048828125,1149.31986328125,149.4400048828125C1149.31986328125,152.17930488281252,1151.66586328125,154.4000048828125,1154.55986328125,154.4000048828125ZM1086.43986328125,154.4000048828125C1089.33386328125,154.4000048828125,1091.67986328125,152.17930488281252,1091.67986328125,149.4400048828125C1091.67986328125,146.7007048828125,1089.33386328125,144.4800048828125,1086.43986328125,144.4800048828125C1083.54586328125,144.4800048828125,1081.19986328125,146.7007048828125,1081.19986328125,149.4400048828125C1081.19986328125,152.17930488281252,1083.54586328125,154.4000048828125,1086.43986328125,154.4000048828125ZM1120.49986328125,132.0800048828125C1132.40256328125,132.0800048828125,1143.35416328125,129.0246048828125,1150.98616328125,124.0002048828125C1146.71556328125,111.2579048828125,1134.51686328125,102.3200048828125,1120.49986328125,102.3200048828125C1106.48286328125,102.3200048828125,1094.28416328125,111.2579048828125,1090.01356328125,124.0002048828125C1097.64556328125,129.0246048828125,1108.59716328125,132.0800048828125,1120.49986328125,132.0800048828125ZM1116.56986328125,107.2800048828125C1118.74036328125,107.2800048828125,1120.49986328125,108.9455048828125,1120.49986328125,111.0000048828125C1120.49986328125,113.0545048828125,1118.74036328125,114.7200048828125,1116.56986328125,114.7200048828125C1113.93676328125,114.7200048828125,1111.12816328125,116.01210488281251,1109.12906328125,118.3185048828125C1107.75266328125,119.9061048828125,1105.27736328125,120.1375048828125,1103.59946328125,118.8354048828125C1101.92156328125,117.5333048828125,1101.67586328125,115.1904048828125,1103.05066328125,113.60150488281249C1106.52476328125,109.5938048828125,1111.55256328125,107.2800048828125,1116.56986328125,107.2800048828125ZM1089.05986328125,169.2800048828125C1098.07266328125,171.2764048828125,1108.88016328125,172.4395048828125,1120.49986328125,172.4395048828125C1132.11956328125,172.4395048828125,1142.92706328125,171.2764048828125,1151.93986328125,169.2800048828125C1147.07716328125,180.88640488281249,1134.83126328125,189.1200048828125,1120.49986328125,189.1200048828125C1106.16846328125,189.1200048828125,1093.92256328125,180.88640488281249,1089.05986328125,169.2800048828125Z" fill="#DBDBDB" fill-opacity="1"/></g></g></g></g></svg>